0
SECTION
2
HEADER
9
$INSUNITS
70
4
9
$ACADVER
1
AC1014
9
$HANDSEED
5
FFFF
0
ENDSEC
0
SECTION
2
TABLES
0
TABLE
2
VPORT
5
8
100
AcDbSymbolTable
0
ENDTAB
0
TABLE
2
LTYPE
5
5
100
AcDbSymbolTable
0
LTYPE
5
14
100
AcDbSymbolTableRecord
100
AcDbLinetypeTableRecord
2
BYBLOCK
70
0
0
LTYPE
5
15
100
AcDbSymbolTableRecord
100
AcDbLinetypeTableRecord
2
BYLAYER
70
0
0
ENDTAB
0
TABLE
2
LAYER
5
2
100
AcDbSymbolTable
70
2
0
LAYER
5
50
100
AcDbSymbolTableRecord
100
AcDbLayerTableRecord
2
0
70
0
6
CONTINUOUS
0
ENDTAB
0
TABLE
2
STYLE
5
3
100
AcDbSymbolTable
70
1
0
STYLE
5
11
100
AcDbSymbolTableRecord
100
AcDbTextStyleTableRecord
2
STANDARD
70
0
0
ENDTAB
0
TABLE
2
VIEW
5
6
100
AcDbSymbolTable
70
0
0
ENDTAB
0
TABLE
2
UCS
5
7
100
AcDbSymbolTable
70
0
0
ENDTAB
0
TABLE
2
APPID
5
9
100
AcDbSymbolTable
70
2
0
APPID
5
12
100
AcDbSymbolTableRecord
100
AcDbRegAppTableRecord
2
ACAD
70
0
0
ENDTAB
0
TABLE
2
DIMSTYLE
5
A
100
AcDbSymbolTable
70
1
0
ENDTAB
0
TABLE
2
BLOCK_RECORD
5
1
100
AcDbSymbolTable
70
1
0
BLOCK_RECORD
5
1F
100
AcDbSymbolTableRecord
100
AcDbBlockTableRecord
2
*MODEL_SPACE
0
BLOCK_RECORD
5
1B
100
AcDbSymbolTableRecord
100
AcDbBlockTableRecord
2
*PAPER_SPACE
0
ENDTAB
0
ENDSEC
0
SECTION
2
BLOCKS
0
BLOCK
5
20
100
AcDbEntity
100
AcDbBlockBegin
2
*MODEL_SPACE
0
ENDBLK
5
21
100
AcDbEntity
100
AcDbBlockEnd
0
BLOCK
5
1C
100
AcDbEntity
100
AcDbBlockBegin
2
*PAPER_SPACE
0
ENDBLK
5
1D
100
AcDbEntity
100
AcDbBlockEnd
0
ENDSEC
0
SECTION
2
ENTITIES
0
CIRCLE
5
100
100
AcDbEntity
8
0
100
AcDbCircle
10
101.90568000000019
20
45.710000000114718
30
0
40
2.0828000000000024
0
CIRCLE
5
101
100
AcDbEntity
8
0
100
AcDbCircle
10
111.43068000000011
20
68.07388865660738
30
0
40
2.0828000000000015
0
CIRCLE
5
102
100
AcDbEntity
8
0
100
AcDbCircle
10
153.40517938421169
20
65.991088656607516
30
0
40
2.0828000000000024
0
CIRCLE
5
103
100
AcDbEntity
8
0
100
AcDbCircle
10
136.83068
20
97.602200000114891
30
0
40
2.0828000000000002
0
CIRCLE
5
104
100
AcDbEntity
8
0
100
AcDbCircle
10
105.08068000000002
20
97.602200000114749
30
0
40
2.0828000000000002
0
CIRCLE
5
105
100
AcDbEntity
8
0
100
AcDbCircle
10
127.30568000000018
20
45.710000000114796
30
0
40
2.0828000000000002
0
CIRCLE
5
106
100
AcDbEntity
8
0
100
AcDbCircle
10
130.48068000000012
20
68.073888656607465
30
0
40
2.0828000000000002
0
CIRCLE
5
107
100
AcDbEntity
8
0
100
AcDbCircle
10
140.00568000000018
20
45.710000000114817
30
0
40
2.0828000000000002
0
CIRCLE
5
108
100
AcDbEntity
8
0
100
AcDbCircle
10
88.506180615788551
20
65.991088656607303
30
0
40
2.0828000000000024
0
CIRCLE
5
109
100
AcDbEntity
8
0
100
AcDbCircle
10
114.60568000000018
20
45.710000000114746
30
0
40
2.0828000000000002
0
LWPOLYLINE
5
110
100
AcDbEntity
8
0
100
AcDbPolyline
90
20
70
1
43
0.0
10
118.57442999999998
20
102.86000000011475
10
123.33692999999998
20
102.86000000011477
10
123.33693000000008
20
80.000001192207606
10
131.27443000000005
20
80.000001192207634
10
131.27443
20
102.86000000011472
10
136.83068000000006
20
102.86000000011609
42
-0.25136106194920999
10
141.21196556818515
20
100.50888154614381
10
159.46130041033064
20
73.001339271875935
42
-0.24823384288704331
10
159.94797357197947
20
68.10784934708775
10
149.26423055004938
20
41.931211608026196
42
-0.30476547283047878
10
140.00568000000021
20
35.710000000114839
10
101.90568000000022
20
35.710000000114732
42
-0.30476547283047839
10
92.647129449951038
20
41.931211608026011
10
81.963386428020755
20
68.10784934708748
42
-0.24823384288704331
10
82.450059589669536
20
73.001339271875665
10
100.69939443180651
20
100.50888154612889
42
-0.25136106195006502
10
105.08067999999993
20
102.86000000011472
10
110.63693000000001
20
102.86000000011468
10
110.63693000000008
20
80.000001192207577
10
118.57443000000005
20
80.000001192207591
0
ENDSEC
0
SECTION
2
OBJECTS
0
DICTIONARY
5
C
100
AcDbDictionary
3
ACAD_GROUP
350
D
3
ACAD_MLINESTYLE
350
17
0
DICTIONARY
5
D
100
AcDbDictionary
0
DICTIONARY
5
1A
330
C
100
AcDbDictionary
0
DICTIONARY
5
17
100
AcDbDictionary
0
ENDSEC
0
EOF
