0
SECTION
2
HEADER
9
$INSUNITS
70
4
9
$ACADVER
1
AC1014
9
$HANDSEED
5
FFFF
0
ENDSEC
0
SECTION
2
TABLES
0
TABLE
2
VPORT
5
8
100
AcDbSymbolTable
0
ENDTAB
0
TABLE
2
LTYPE
5
5
100
AcDbSymbolTable
0
LTYPE
5
14
100
AcDbSymbolTableRecord
100
AcDbLinetypeTableRecord
2
BYBLOCK
70
0
0
LTYPE
5
15
100
AcDbSymbolTableRecord
100
AcDbLinetypeTableRecord
2
BYLAYER
70
0
0
ENDTAB
0
TABLE
2
LAYER
5
2
100
AcDbSymbolTable
70
2
0
LAYER
5
50
100
AcDbSymbolTableRecord
100
AcDbLayerTableRecord
2
0
70
0
6
CONTINUOUS
0
ENDTAB
0
TABLE
2
STYLE
5
3
100
AcDbSymbolTable
70
1
0
STYLE
5
11
100
AcDbSymbolTableRecord
100
AcDbTextStyleTableRecord
2
STANDARD
70
0
0
ENDTAB
0
TABLE
2
VIEW
5
6
100
AcDbSymbolTable
70
0
0
ENDTAB
0
TABLE
2
UCS
5
7
100
AcDbSymbolTable
70
0
0
ENDTAB
0
TABLE
2
APPID
5
9
100
AcDbSymbolTable
70
2
0
APPID
5
12
100
AcDbSymbolTableRecord
100
AcDbRegAppTableRecord
2
ACAD
70
0
0
ENDTAB
0
TABLE
2
DIMSTYLE
5
A
100
AcDbSymbolTable
70
1
0
ENDTAB
0
TABLE
2
BLOCK_RECORD
5
1
100
AcDbSymbolTable
70
1
0
BLOCK_RECORD
5
1F
100
AcDbSymbolTableRecord
100
AcDbBlockTableRecord
2
*MODEL_SPACE
0
BLOCK_RECORD
5
1B
100
AcDbSymbolTableRecord
100
AcDbBlockTableRecord
2
*PAPER_SPACE
0
ENDTAB
0
ENDSEC
0
SECTION
2
BLOCKS
0
BLOCK
5
20
100
AcDbEntity
100
AcDbBlockBegin
2
*MODEL_SPACE
0
ENDBLK
5
21
100
AcDbEntity
100
AcDbBlockEnd
0
BLOCK
5
1C
100
AcDbEntity
100
AcDbBlockBegin
2
*PAPER_SPACE
0
ENDBLK
5
1D
100
AcDbEntity
100
AcDbBlockEnd
0
ENDSEC
0
SECTION
2
ENTITIES
0
CIRCLE
5
100
100
AcDbEntity
8
0
100
AcDbCircle
10
-176.01434907452986
20
70.000000000000028
30
0
40
2.0827999999999847
0
CIRCLE
5
101
100
AcDbEntity
8
0
100
AcDbCircle
10
-195.18565092547036
20
70.000000000000028
30
0
40
2.0827999999999847
0
CIRCLE
5
102
100
AcDbEntity
8
0
100
AcDbCircle
10
-261.01434907452978
20
70.000000000000028
30
0
40
2.0827999999999847
0
CIRCLE
5
103
100
AcDbEntity
8
0
100
AcDbCircle
10
-70.800000000000068
20
34.92499999999999
30
0
40
2.0828000000000024
0
CIRCLE
5
104
100
AcDbEntity
8
0
100
AcDbCircle
10
-143.10000000000002
20
73.024999999999977
30
0
40
2.0828000000000024
0
CIRCLE
5
105
100
AcDbEntity
8
0
100
AcDbCircle
10
-155.80000000000001
20
73.024999999999977
30
0
40
2.0828000000000024
0
CIRCLE
5
106
100
AcDbEntity
8
0
100
AcDbCircle
10
-185.60000000000008
20
57.449653160481631
30
0
40
2.0827999999999847
0
CIRCLE
5
107
100
AcDbEntity
8
0
100
AcDbCircle
10
-276.20000000000005
20
25.000000000000036
30
0
40
2.0827999999999847
0
CIRCLE
5
108
100
AcDbEntity
8
0
100
AcDbCircle
10
-276.2000000000001
20
70.000000000000028
30
0
40
2.0827999999999847
0
CIRCLE
5
109
100
AcDbEntity
8
0
100
AcDbCircle
10
-276.2000000000001
20
47.500000000000014
30
0
40
2.0827999999999847
0
CIRCLE
5
110
100
AcDbEntity
8
0
100
AcDbCircle
10
-10.000000000000007
20
70.000000000000028
30
0
40
2.0828000000000024
0
CIRCLE
5
111
100
AcDbEntity
8
0
100
AcDbCircle
10
-10.000000000000009
20
24.999999999999982
30
0
40
2.0828000000000002
0
CIRCLE
5
112
100
AcDbEntity
8
0
100
AcDbCircle
10
-10.000000000000011
20
47.500000000000028
30
0
40
2.0828000000000002
0
CIRCLE
5
113
100
AcDbEntity
8
0
100
AcDbCircle
10
-58.100000000000065
20
34.92499999999999
30
0
40
2.0828000000000024
0
CIRCLE
5
114
100
AcDbEntity
8
0
100
AcDbCircle
10
-45.400000000000063
20
34.92499999999999
30
0
40
2.0828000000000024
0
CIRCLE
5
115
100
AcDbEntity
8
0
100
AcDbCircle
10
-240.80000000000007
20
34.924999999999983
30
0
40
2.0827999999999847
0
CIRCLE
5
116
100
AcDbEntity
8
0
100
AcDbCircle
10
-228.10000000000005
20
34.924999999999983
30
0
40
2.0827999999999847
0
CIRCLE
5
117
100
AcDbEntity
8
0
100
AcDbCircle
10
-215.40000000000006
20
34.924999999999983
30
0
40
2.0827999999999847
0
CIRCLE
5
118
100
AcDbEntity
8
0
100
AcDbCircle
10
-155.80000000000004
20
34.92499999999999
30
0
40
2.0828000000000024
0
CIRCLE
5
119
100
AcDbEntity
8
0
100
AcDbCircle
10
-143.10000000000002
20
34.92499999999999
30
0
40
2.0828000000000024
0
CIRCLE
5
120
100
AcDbEntity
8
0
100
AcDbCircle
10
-168.50000000000009
20
34.92499999999999
30
0
40
2.0827999999999847
0
CIRCLE
5
121
100
AcDbEntity
8
0
100
AcDbCircle
10
-25.185650925470298
20
70.000000000000014
30
0
40
2.082799999999998
0
CIRCLE
5
122
100
AcDbEntity
8
0
100
AcDbCircle
10
-100.60000000000005
20
57.449653160481802
30
0
40
2.0828000000000024
0
CIRCLE
5
123
100
AcDbEntity
8
0
100
AcDbCircle
10
-91.014349074529832
20
70.000000000000014
30
0
40
2.0828000000000024
0
CIRCLE
5
124
100
AcDbEntity
8
0
100
AcDbCircle
10
-110.18565092547024
20
70.000000000000014
30
0
40
2.0828000000000024
0
CIRCLE
5
125
100
AcDbEntity
8
0
100
AcDbCircle
10
-130.40000000000003
20
73.024999999999977
30
0
40
2.0828000000000024
0
LWPOLYLINE
5
126
100
AcDbEntity
8
0
100
AcDbPolyline
90
4
70
1
43
0.0
10
-286.2000000000001
20
15.000000000000027
10
-286.2000000000001
20
80.000000000000028
10
0
20
80
10
0
20
15
0
ENDSEC
0
SECTION
2
OBJECTS
0
DICTIONARY
5
C
100
AcDbDictionary
3
ACAD_GROUP
350
D
3
ACAD_MLINESTYLE
350
17
0
DICTIONARY
5
D
100
AcDbDictionary
0
DICTIONARY
5
1A
330
C
100
AcDbDictionary
0
DICTIONARY
5
17
100
AcDbDictionary
0
ENDSEC
0
EOF
