0
SECTION
2
HEADER
9
$INSUNITS
70
4
9
$ACADVER
1
AC1014
9
$HANDSEED
5
FFFF
0
ENDSEC
0
SECTION
2
TABLES
0
TABLE
2
VPORT
5
8
100
AcDbSymbolTable
0
ENDTAB
0
TABLE
2
LTYPE
5
5
100
AcDbSymbolTable
0
LTYPE
5
14
100
AcDbSymbolTableRecord
100
AcDbLinetypeTableRecord
2
BYBLOCK
70
0
0
LTYPE
5
15
100
AcDbSymbolTableRecord
100
AcDbLinetypeTableRecord
2
BYLAYER
70
0
0
ENDTAB
0
TABLE
2
LAYER
5
2
100
AcDbSymbolTable
70
2
0
LAYER
5
50
100
AcDbSymbolTableRecord
100
AcDbLayerTableRecord
2
0
70
0
6
CONTINUOUS
0
ENDTAB
0
TABLE
2
STYLE
5
3
100
AcDbSymbolTable
70
1
0
STYLE
5
11
100
AcDbSymbolTableRecord
100
AcDbTextStyleTableRecord
2
STANDARD
70
0
0
ENDTAB
0
TABLE
2
VIEW
5
6
100
AcDbSymbolTable
70
0
0
ENDTAB
0
TABLE
2
UCS
5
7
100
AcDbSymbolTable
70
0
0
ENDTAB
0
TABLE
2
APPID
5
9
100
AcDbSymbolTable
70
2
0
APPID
5
12
100
AcDbSymbolTableRecord
100
AcDbRegAppTableRecord
2
ACAD
70
0
0
ENDTAB
0
TABLE
2
DIMSTYLE
5
A
100
AcDbSymbolTable
70
1
0
ENDTAB
0
TABLE
2
BLOCK_RECORD
5
1
100
AcDbSymbolTable
70
1
0
BLOCK_RECORD
5
1F
100
AcDbSymbolTableRecord
100
AcDbBlockTableRecord
2
*MODEL_SPACE
0
BLOCK_RECORD
5
1B
100
AcDbSymbolTableRecord
100
AcDbBlockTableRecord
2
*PAPER_SPACE
0
ENDTAB
0
ENDSEC
0
SECTION
2
BLOCKS
0
BLOCK
5
20
100
AcDbEntity
100
AcDbBlockBegin
2
*MODEL_SPACE
0
ENDBLK
5
21
100
AcDbEntity
100
AcDbBlockEnd
0
BLOCK
5
1C
100
AcDbEntity
100
AcDbBlockBegin
2
*PAPER_SPACE
0
ENDBLK
5
1D
100
AcDbEntity
100
AcDbBlockEnd
0
ENDSEC
0
SECTION
2
ENTITIES
0
CIRCLE
5
100
100
AcDbEntity
8
0
100
AcDbCircle
10
127.87718000000014
20
45.710000000238139
30
0
40
2.0828000000000002
0
CIRCLE
5
101
100
AcDbEntity
8
0
100
AcDbCircle
10
153.97667938421171
20
65.991088656730767
30
3.5527136788005009e-014
40
2.0828000000000024
0
CIRCLE
5
102
100
AcDbEntity
8
0
100
AcDbCircle
10
131.05218000000013
20
68.073888656730787
30
0
40
2.0828000000000002
0
CIRCLE
5
103
100
AcDbEntity
8
0
100
AcDbCircle
10
140.57718000000014
20
45.710000000238118
30
0
40
2.0828000000000002
0
CIRCLE
5
104
100
AcDbEntity
8
0
100
AcDbCircle
10
105.65218000000013
20
132.52720000023814
30
-3.5527136788005009e-014
40
2.0828000000000002
0
CIRCLE
5
105
100
AcDbEntity
8
0
100
AcDbCircle
10
102.47718000000015
20
45.710000000238139
30
-3.5527136788005009e-014
40
2.0828000000000024
0
CIRCLE
5
106
100
AcDbEntity
8
0
100
AcDbCircle
10
115.17718000000015
20
45.710000000238139
30
-3.5527136788005009e-014
40
2.0828000000000002
0
CIRCLE
5
107
100
AcDbEntity
8
0
100
AcDbCircle
10
137.40218000000013
20
132.5272000002382
30
0
40
2.0828000000000002
0
CIRCLE
5
108
100
AcDbEntity
8
0
100
AcDbCircle
10
89.077680615788566
20
65.991088656730767
30
0
40
2.0828000000000024
0
CIRCLE
5
109
100
AcDbEntity
8
0
100
AcDbCircle
10
112.00218000000015
20
68.073888656730773
30
0
40
2.0828000000000015
0
LWPOLYLINE
5
110
100
AcDbEntity
8
0
100
AcDbPolyline
90
20
70
1
43
0.0
10
118.86018000000013
20
137.78500000023814
10
124.19418000000013
20
137.78500000023814
10
124.19418000000015
20
80.000001192330956
10
132.13168000000013
20
80.000001192330956
10
132.13168000000013
20
137.78500000023809
10
137.4021800000001
20
137.7850000002382
42
-0.31377451191477457
10
142.33284267902695
20
134.35285779556895
10
163.13424865139822
20
78.173247300101323
42
-0.18768798057948674
10
163.07154651978919
20
74.360778578225478
10
149.83573055004931
20
41.931211608149475
42
-0.30476547283047867
10
140.57718000000017
20
35.710000000238139
10
102.47718000000015
20
35.710000000238132
42
-0.30476547283047872
10
93.218629449950967
20
41.931211608149468
10
79.982813480211078
20
74.360778578225478
42
-0.18768798057948696
10
79.920111348602049
20
78.173247300101337
10
100.72151732097333
20
134.35285779556895
42
-0.3137745119147704
10
105.65218000000013
20
137.78500000023811
10
110.92268000000013
20
137.78500000023809
10
110.92268000000016
20
80.000001192330956
10
118.86018000000014
20
80.000001192330956
0
ENDSEC
0
SECTION
2
OBJECTS
0
DICTIONARY
5
C
100
AcDbDictionary
3
ACAD_GROUP
350
D
3
ACAD_MLINESTYLE
350
17
0
DICTIONARY
5
D
100
AcDbDictionary
0
DICTIONARY
5
1A
330
C
100
AcDbDictionary
0
DICTIONARY
5
17
100
AcDbDictionary
0
ENDSEC
0
EOF
